<mxfile host="app.diagrams.net" modified="2024-04-12T09:42:48.298Z" agent="Mozilla/5.0 (Macintosh; Intel Mac OS X 10_15_7) AppleWebKit/537.36 (KHTML, like Gecko) Chrome/123.0.0.0 Safari/537.36" version="24.2.2" etag="aqukbut-zJw0X-6k-Eun" type="github">
  <diagram name="Страница — 1" id="mp8H536XiO8wgkco1xyG">
    <mxGraphModel>
      <root>
        <mxCell id="0" />
        <mxCell id="1" parent="0" />
      </root>
    </mxGraphModel>
  </diagram>
</mxfile>
